<svg viewBox="0 0 40 40" xmlns="http://www.w3.org/2000/svg">
  <path d="M19.5058518,39.990062 C24.3259645,40.0982756 28.6605982,39.3227451 32.5097529,37.6634706 C37.503251,35.5713418 40,32.4331487 40,28.2488912 C40,23.6317795 37.9020373,20.3673372 33.7061118,18.4555643 C30.307759,16.9405746 25.2449068,16.1830797 18.5175553,16.1830797 C17.1304725,16.1830797 15.656697,15.8404034 14.0962289,15.1550509 C12.154313,14.2893424 11.183355,13.1891713 11.183355,11.8545374 C11.183355,9.90669341 12.0502818,8.44581041 13.7841352,7.4718884 C15.171218,6.67832232 16.9050715,6.28153928 18.9856957,6.28153928 C21.5171218,6.28153928 23.7884699,6.9849274 25.7997399,8.39170363 C27.9150412,9.90669341 29.2501084,11.9266798 29.8049415,14.4516628 L29.8049415,14.4516628 L38.4915475,14.4516628 L38.4915475,0.383900473 L31.6775033,0.383900473 L31.6775033,3.95494783 C30.4291287,2.80066989 28.556567,1.82674789 26.0598179,1.03318181 C23.8058084,0.347829288 21.6558301,0.00515302648 19.609883,0.00515302648 C13.8188123,-0.0669893443 9.38014738,0.618363178 6.29388817,2.06121059 C2.09796272,4.08119697 0,7.58010196 0,12.5579255 C0,19.3753796 6.74469007,22.9103557 20.2340702,23.162854 C22.9735587,23.2349964 24.9848288,23.5776727 26.2678804,24.1908828 C27.8283485,24.9483777 28.6259211,26.2289048 28.6605982,28.0324641 C28.6952752,31.8560097 25.9557867,33.7677825 20.4421326,33.7677825 C19.1937581,33.7677825 17.8413524,33.6685868 16.3849155,33.4701953 C14.9284785,33.2718037 13.3333333,32.3249351 11.5994798,30.6295894 C9.76159515,28.8260301 8.80797573,27.0946132 8.73862159,25.4353387 L8.73862159,25.4353387 L0,25.4353387 L0,38.9620332 L6.81404421,38.9620332 L6.81404421,36.3108011 C9.17208496,38.619357 13.4026875,39.8457773 19.5058518,39.990062 Z"></path>
</svg>