<svg viewBox="0 0 72 64" xmlns="http://www.w3.org/2000/svg">
  <path d="M64.7597765,50.47 C69.2849162,46.78 72,42.27 72,37.35 C72,29.2525 56.2122905,23 36,23 C15.7877095,23 0,29.355 0,37.35 C0,42.475 2.91620112,47.19 7.74301676,50.88 C5.83240223,52.11 4.9273743,53.4425 4.9273743,54.8775 C4.9273743,60.8225 21.3184358,64 36.603352,64 C51.9888268,64 68.2793296,60.8225 68.2793296,54.8775 C68.3798883,53.2375 67.1731844,51.7 64.7597765,50.47 Z M36,25.2777778 C56.0702663,25.2777778 69.5502959,31.750463 69.75,37.7011574 C69.6501479,38.2231481 68.8513314,41.0418981 64.9571006,43.8606481 C64.058432,44.487037 62.9600592,45.1134259 61.6619822,45.844213 C56.0702663,48.3497685 47.9822485,50.124537 38.1967456,50.3333333 C37.4977811,50.3333333 36.6989645,50.3333333 36,50.3333333 C35.3010355,50.3333333 34.602071,50.3333333 33.9031065,50.3333333 C24.4171598,50.124537 16.5288462,48.4541667 10.9371302,46.0530093 C3.64792899,42.6078704 2.44970414,38.3275463 2.25,37.7011574 C2.44970414,31.750463 15.9297337,25.2777778 36,25.2777778 Z M4.5,44.6388889 C5.81486593,45.6253281 7.33201893,46.4144794 9.15260252,47.2036308 C14.4120662,49.8670166 22.908123,51.9385389 36.5625,51.9385389 C50.216877,51.9385389 58.7129338,49.7683727 63.9723975,47.2036308 C65.7929811,46.4144794 67.3101341,45.5266842 68.625,44.6388889 C63.8712539,51.9385389 51.3294558,57.1666667 36.5625,57.1666667 C21.7955442,57.1666667 9.25374606,51.9385389 4.5,44.6388889 Z"></path>
  <path d="M35.5058518,39.990062 C40.3259645,40.0982756 44.6605982,39.3227451 48.5097529,37.6634706 C53.503251,35.5713418 56,32.4331487 56,28.2488912 C56,23.6317795 53.9020373,20.3673372 49.7061118,18.4555643 C46.307759,16.9405746 41.2449068,16.1830797 34.5175553,16.1830797 C33.1304725,16.1830797 31.656697,15.8404034 30.0962289,15.1550509 C28.154313,14.2893424 27.183355,13.1891713 27.183355,11.8545374 C27.183355,9.90669341 28.0502818,8.44581041 29.7841352,7.4718884 C31.171218,6.67832232 32.9050715,6.28153928 34.9856957,6.28153928 C37.5171218,6.28153928 39.7884699,6.9849274 41.7997399,8.39170363 C43.9150412,9.90669341 45.2501084,11.9266798 45.8049415,14.4516628 L45.8049415,14.4516628 L54.4915475,14.4516628 L54.4915475,0.383900473 L47.6775033,0.383900473 L47.6775033,3.95494783 C46.4291287,2.80066989 44.556567,1.82674789 42.0598179,1.03318181 C39.8058084,0.347829288 37.6558301,0.00515302648 35.609883,0.00515302648 C29.8188123,-0.0669893443 25.3801474,0.618363178 22.2938882,2.06121059 C18.0979627,4.08119697 16,7.58010196 16,12.5579255 C16,19.3753796 22.7446901,22.9103557 36.2340702,23.162854 C38.9735587,23.2349964 40.9848288,23.5776727 42.2678804,24.1908828 C43.8283485,24.9483777 44.6259211,26.2289048 44.6605982,28.0324641 C44.6952752,31.8560097 41.9557867,33.7677825 36.4421326,33.7677825 C35.1937581,33.7677825 33.8413524,33.6685868 32.3849155,33.4701953 C30.9284785,33.2718037 29.3333333,32.3249351 27.5994798,30.6295894 C25.7615951,28.8260301 24.8079757,27.0946132 24.7386216,25.4353387 L24.7386216,25.4353387 L16,25.4353387 L16,38.9620332 L22.8140442,38.9620332 L22.8140442,36.3108011 C25.172085,38.619357 29.4026875,39.8457773 35.5058518,39.990062 Z"></path>
</svg>
