<svg viewBox="0 0 97 14" xmlns="http://www.w3.org/2000/svg">
  <path d="M5.51104972,14 C6.74861878,14 7.79926335,13.8130755 8.66298343,13.4392265 C9.5267035,13.0653775 10.1744936,12.5593923 10.6063536,11.9212707 C11.0382136,11.2831492 11.2541436,10.5773481 11.2541436,9.8038674 C11.2541436,8.9014733 11.0188766,8.18600368 10.5483425,7.65745856 C10.0778085,7.12891344 9.51381215,6.74217311 8.85635359,6.49723757 C8.19889503,6.25230203 7.35451197,6.00736648 6.32320442,5.76243094 C5.3305709,5.54327808 4.59254144,5.32090239 4.10911602,5.09530387 C3.62569061,4.86970534 3.3839779,4.52486188 3.3839779,4.06077348 C3.3839779,3.59668508 3.59346225,3.2228361 4.01243094,2.93922652 C4.43139963,2.65561694 5.07918969,2.51381215 5.9558011,2.51381215 C7.20626151,2.51381215 8.45672192,2.86832413 9.70718232,3.57734807 L9.70718232,3.57734807 L10.6740331,1.19889503 C10.0552486,0.812154696 9.33333333,0.515653775 8.50828729,0.309392265 C7.68324125,0.103130755 6.8388582,0 5.97513812,0 C4.73756906,0 3.69014733,0.186924494 2.83287293,0.560773481 C1.97559853,0.934622468 1.33425414,1.44060773 0.908839779,2.07872928 C0.483425414,2.71685083 0.270718232,3.42909761 0.270718232,4.21546961 C0.270718232,5.11786372 0.505985267,5.83977901 0.976519337,6.38121547 C1.44705341,6.92265193 2.01104972,7.31583794 2.66850829,7.56077348 C3.32596685,7.80570902 4.17034991,8.05064457 5.20165746,8.29558011 C5.87200737,8.45027624 6.40377532,8.59208103 6.79696133,8.72099448 C7.19014733,8.84990792 7.51243094,9.02071823 7.76381215,9.23342541 C8.01519337,9.4461326 8.14088398,9.71362799 8.14088398,10.0359116 C8.14088398,10.4742173 7.9281768,10.8255064 7.50276243,11.089779 C7.07734807,11.3540516 6.4198895,11.4861878 5.53038674,11.4861878 C4.73112339,11.4861878 3.93186004,11.3572744 3.13259669,11.0994475 C2.33333333,10.8416206 1.64364641,10.5 1.06353591,10.0745856 L1.06353591,10.0745856 L2.13162821e-14,12.4337017 C0.605893186,12.8977901 1.40837937,13.2748619 2.40745856,13.5649171 C3.40653775,13.8549724 4.44106814,14 5.51104972,14 Z M17.7320442,13.7679558 L18.9309392,10.8674033 L25.2154696,10.8674033 L26.4143646,13.7679558 L29.7016575,13.7679558 L23.6491713,0.232044199 L20.5552486,0.232044199 L14.5220994,13.7679558 L17.7320442,13.7679558 Z M24.2292818,8.48895028 L19.9364641,8.48895028 L22.0828729,3.30662983 L24.2292818,8.48895028 Z M39.7375691,14 C41.6712707,14 43.1763352,13.4650092 44.2527624,12.3950276 C45.3291897,11.325046 45.8674033,9.79742173 45.8674033,7.8121547 L45.8674033,7.8121547 L45.8674033,0.232044199 L42.7734807,0.232044199 L42.7734807,7.6961326 C42.7734807,8.946593 42.5156538,9.86510129 42,10.4516575 C41.4843462,11.0382136 40.7366483,11.3314917 39.7569061,11.3314917 C37.7458564,11.3314917 36.7403315,10.1197053 36.7403315,7.6961326 L36.7403315,7.6961326 L36.7403315,0.232044199 L33.6077348,0.232044199 L33.6077348,7.8121547 C33.6077348,9.79742173 34.1459484,11.325046 35.2223757,12.3950276 C36.2988029,13.4650092 37.8038674,14 39.7375691,14 Z M58.339779,14 C59.5128913,14 60.5764273,13.7937385 61.5303867,13.3812155 C62.4843462,12.9686924 63.2836096,12.3692449 63.9281768,11.5828729 L63.9281768,11.5828729 L61.9171271,9.72651934 C61.0018416,10.7965009 59.8674033,11.3314917 58.5138122,11.3314917 C57.6758748,11.3314917 56.9281768,11.1477901 56.2707182,10.7803867 C55.6132597,10.4129834 55.1008287,9.90055249 54.7334254,9.24309392 C54.3660221,8.58563536 54.1823204,7.83793738 54.1823204,7 C54.1823204,6.16206262 54.3660221,5.41436464 54.7334254,4.75690608 C55.1008287,4.09944751 55.6132597,3.58701657 56.2707182,3.21961326 C56.9281768,2.85220994 57.6758748,2.66850829 58.5138122,2.66850829 C59.8674033,2.66850829 61.0018416,3.19705341 61.9171271,4.25414365 L61.9171271,4.25414365 L63.9281768,2.39779006 C63.2836096,1.62430939 62.4875691,1.03130755 61.5400552,0.61878453 C60.5925414,0.20626151 59.5322284,0 58.359116,0 C56.9668508,0 55.7131676,0.299723757 54.5980663,0.899171271 C53.482965,1.49861878 52.6063536,2.3301105 51.968232,3.39364641 C51.3301105,4.45718232 51.0110497,5.65930018 51.0110497,7 C51.0110497,8.34069982 51.3301105,9.54281768 51.968232,10.6063536 C52.6063536,11.6698895 53.482965,12.5013812 54.5980663,13.1008287 C55.7131676,13.7002762 56.9604052,14 58.339779,14 Z M79.4171271,13.7679558 L79.4171271,11.2541436 L72.0497238,11.2541436 L72.0497238,8.12154696 L78.3342541,8.12154696 L78.3342541,5.68508287 L72.0497238,5.68508287 L72.0497238,2.74585635 L79.1657459,2.74585635 L79.1657459,0.232044199 L68.9364641,0.232044199 L68.9364641,13.7679558 L79.4171271,13.7679558 Z M87.9447514,13.7679558 L87.9447514,9.99723757 L90.8259669,9.99723757 L93.4364641,13.7679558 L96.801105,13.7679558 L93.7651934,9.41712707 C94.6546961,9.03038674 95.3411602,8.4728361 95.8245856,7.74447514 C96.308011,7.01611418 96.5497238,6.14917127 96.5497238,5.14364641 C96.5497238,4.13812155 96.3112339,3.2679558 95.8342541,2.53314917 C95.3572744,1.79834254 94.677256,1.23112339 93.7941989,0.831491713 C92.9111418,0.431860037 91.8701657,0.232044199 90.6712707,0.232044199 L90.6712707,0.232044199 L84.8121547,0.232044199 L84.8121547,13.7679558 L87.9447514,13.7679558 Z M90.4972376,7.50276243 L87.9447514,7.50276243 L87.9447514,2.78453039 L90.4972376,2.78453039 C91.4383057,2.78453039 92.1537753,2.98756906 92.6436464,3.39364641 C93.1335175,3.79972376 93.378453,4.38305709 93.378453,5.14364641 C93.378453,5.89134438 93.1335175,6.47145488 92.6436464,6.8839779 C92.1537753,7.29650092 91.4383057,7.50276243 90.4972376,7.50276243 L90.4972376,7.50276243 Z"></path>
</svg>
